<svg id="グループ_8" data-name="グループ 8" xmlns="http://www.w3.org/2000/svg" width="488.516" height="488.001" viewBox="0 0 488.516 488.001">
  <defs>
    <style>
      .cls-1 {
        fill: #5c8933;
      }
    </style>
  </defs>
  <path id="パス_1" data-name="パス 1" class="cls-1" d="M-100.413-43.364c1.584,0,2.272-.022,2.643-.022.2,0,.207-.12.1-.328-.273-.513-.7-1.354-1.354-2.6-.579-1.1-.961-2.042-1.169-2.446-.131-.24-.251-.251-.36-.055-.207.4-.775,1.278-1.311,2.294-.59,1.092-1.081,2.206-1.4,2.8-.12.218-.087.36.153.36Z" transform="translate(298.482 379.051)"/>
  <path id="パス_2" data-name="パス 2" class="cls-1" d="M-84.53-46.953c0-1.311-.7-1.977-2.337-1.977,0,0-2.13-.011-3.2-.033-.874.022-2.774.033-3.462.033-.153,0-.251.055-.251.175,0,.24-.066.743-.066,1.671,0,.874.066,1.42.066,1.7,0,.175.022.251.2.251.273,0,1.42-.055,3.069-.055,2.632,0,3.833.055,3.833.055C-85.163-45.13-84.53-45.73-84.53-46.953Z" transform="translate(392.59 378.937)"/>
  <path id="パス_3" data-name="パス 3" class="cls-1" d="M-101.354-40.546H-95.6a3.908,3.908,0,0,0,2.905-1.147,3.918,3.918,0,0,0,1.037-2.949,3.974,3.974,0,0,0-1.114-3.069c-.808-.775-1.474-.972-3.2-1.169a48.064,48.064,0,0,0-5.472-.011c-.153.011-.24.066-.24.175,0,.35-.131,1.824-.131,3.56,0,1.889.131,3.648.131,4.369C-101.682-40.634-101.562-40.546-101.354-40.546Z" transform="translate(313.545 378.886)"/>
  <path id="パス_4" data-name="パス 4" class="cls-1" d="M-92.477-43.452c1.573,0,2.337.066,2.709.066.186,0,.2-.12.1-.328-.273-.513-.7-1.354-1.354-2.6-.568-1.1-1.092-2.042-1.3-2.446-.131-.24-.251-.251-.36-.055-.208.4-.4.677-1.223,2.414s-1.037,2.086-1.354,2.676c-.12.218-.1.36.153.36C-94.7-43.364-93.962-43.452-92.477-43.452Z" transform="translate(377.842 379.051)"/>
  <path id="パス_5" data-name="パス 5" class="cls-1" d="M-97.971-46.489c2.534,5.635,5.9,4.434,9.491,3.014s4.041-4.707,2.545-8.748c-1.54-4.117-4.074-10.594-6.4-16.928-2.261-6.138-5.461-7-8.945-5.646-4.423,1.7-6.8,4.685-4.969,9.032C-105.07-62.97-100.45-51.983-97.971-46.489Z" transform="translate(263.341 117.132)"/>
  <path id="パス_6" data-name="パス 6" class="cls-1" d="M-97.008-44.945c4.729,5.57,7.121,3.976,10.19,1.616s3.855-5.166.229-9.993c-2.632-3.517-7.667-9.884-11.653-15.334-3.855-5.286-6.924-3.986-9.906-1.737-3.79,2.861-5.111,5.723-2.141,9.4C-108.388-58.63-100.907-49.532-97.008-44.945Z" transform="translate(213.307 146.878)"/>
  <path id="パス_7" data-name="パス 7" class="cls-1" d="M-98.322-49.062c.131,1.442.382,3.67.524,4.926.066.59.284.928,3.091.754,1.791-.1,3.964-.284,5.3-.393,3.844-.36,4.379-2.61,4.27-6.924-.109-4.39-.612-11.577-1.322-18.283-.622-5.832-2.883-7.787-6.629-7.656-2.042.076-5.657.546-7.35.775a.874.874,0,0,0-.808,1.038c.142,1.147.382,3.134.524,4.511C-100.408-67.29-98.868-55.058-98.322-49.062Z" transform="translate(319.053 104.294)"/>
  <path id="パス_8" data-name="パス 8" class="cls-1" d="M-94.385-63.706c.786.164,1.857.393,2.992.623,2.25.48,3.812.8,5.079,1.038,2.861.557,5.537-1.289,6.28-5.253s-.131-6.739-4.194-7.569c-1.737-.349-3.637-.732-5.7-1.125-3.156-.6-3.888-.011-3.975.535-.109.775-.317,2.162-.655,4.369-.349,2.359-.677,4.543-.874,5.865A1.257,1.257,0,0,0-94.385-63.706Z" transform="translate(376.637 108.257)"/>
  <path id="パス_9" data-name="パス 9" class="cls-1" d="M-104.927-45.159c1.114,0,1.376-.055,4.052-.022l2.719.022c1.518,0,2.119-.666,2.119-1.889,0-1.311-.666-1.911-2.3-1.911h-6.476c-.218,0-.459.087-.437.328s0,.754,0,1.485v1.715C-105.255-45.258-105.135-45.159-104.927-45.159Z" transform="translate(279.384 378.967)"/>
  <path id="パス_10" data-name="パス 10" class="cls-1" d="M366.476,152.876c-.24-3.954-.131-7.973-.579-11.959a232.443,232.443,0,0,0-10.026-46.788c-1.267-3.779-2.905-7.427-4.259-11.195-1.365-3.746-2.37-7.634-3.9-11.326s-3.549-7.154-5.231-10.769S339.445,53.424,337.6,49.9s-4.172-6.815-6.171-10.266S306.167,3.84,303.535.881c-2.665-2.993-5.068-6.225-7.874-9.032-2.829-2.818-6.04-5.242-9.01-7.929s-5.69-5.635-8.792-8.169-6.531-4.62-9.742-7-6.225-5.046-9.556-7.263-6.946-3.964-10.386-6.018-6.684-4.412-10.212-6.3-7.307-3.255-10.922-4.969-7.077-3.757-10.78-5.286c-3.681-1.529-18.752-6.946-22.6-8.1-3.812-1.169-31.2-6.881-35.167-7.47-3.943-.59-7.853-1.551-11.839-1.944-3.965-.393-7.984-.229-11.992-.426-3.976-.207-19.954-.186-23.94.033s-19.855,1.955-23.8,2.588-7.951.917-11.861,1.737-7.689,2.2-11.555,3.2-19.113,5.756-22.859,7.1c-3.768,1.354-7.667,2.37-11.337,3.877C25.6-58.969,11.089-52.22,7.572-50.4,4-48.528.724-46.2-2.694-44.214c-3.495,2.031-16.9,10.7-20.1,13.008-3.287,2.37-24.792,20.238-27.5,23.066-2.7,2.807-5.035,6.083-7.689,9.163-2.545,2.971-5.428,5.767-7.918,8.967-2.4,3.1-11.61,16.153-13.794,19.55-2.13,3.32-3.812,6.968-5.832,10.441-1.988,3.418-9.414,17.507-11.14,21.133-1.693,3.582-7.9,18.261-9.294,22.007-1.387,3.713-3.135,7.328-4.369,11.14-1.212,3.779-5.406,19.189-6.269,23.088-.852,3.877-1.169,7.885-1.824,11.817s-1.682,7.809-2.141,11.773-.8,31.847-.568,35.834.109,7.995.557,11.959,1.463,7.853,2.119,11.784,10.911,42.419,12.287,46.154c1.376,3.757,12.254,29.488,14.089,32.994,1.868,3.56,9.884,17.4,12.014,20.718,2.173,3.4,4.794,6.455,7.077,9.655,2.348,3.3,4.369,6.771,6.8,9.862,2.523,3.178,5.439,5.952,8.027,8.879,2.709,3.047,5.111,6.269,7.864,9.021s14.766,13.313,17.966,15.825c3.08,2.425,6.553,4.434,9.862,6.782,3.211,2.272,6.258,4.893,9.666,7.066,3.32,2.13,6.957,3.812,10.452,5.832,3.418,1.988,28.221,14.81,31.924,16.36.852.36,1.725.688,2.61,1,2.872,1.027,5.81,1.878,8.693,2.938,3.724,1.376,7.35,3.113,11.162,4.325,3.79,1.212,19.222,5.352,23.121,6.214s7.9,1.147,11.839,1.8,7.82,1.671,11.773,2.119,7.984.328,11.959.568,19.954.251,23.929.055c4.019-.2,31.847-3.124,35.746-3.9,3.943-.775,7.743-2.108,11.61-3.08,3.9-.961,7.874-1.584,11.7-2.741s29.772-11.664,33.376-13.379c3.626-1.715,7.4-3.1,10.922-4.991s6.782-4.259,10.212-6.324,7.055-3.812,10.375-6.029c3.32-2.239,16.186-11.784,19.266-14.318,3.1-2.545,14.963-13.3,17.791-16.131,2.916-2.719,13.936-14.362,16.5-17.442,2.566-3.058,4.674-6.5,7.066-9.72s17.562-26.736,19.408-30.285,3.189-7.35,4.86-10.987,7.656-18.468,8.977-22.236,5.919-19.1,6.881-22.968c.983-3.9,2.315-7.7,3.1-11.61.8-3.943,3.211-19.79,3.626-23.743.4-4.008.251-8.038.459-12,.208-4.03.775-8.016.775-11.981S366.716,156.895,366.476,152.876ZM297.146,19.851a1.537,1.537,0,0,1,2.348.415c1.813,2.392,5.373,7.1,6.247,8.366.35.491.917,1.321,1.4,2a1.458,1.458,0,0,1-.393,2.086c-1.376,1.07-3.91,3.025-7.394,5.734-3.3,2.567-5.559,4.314-6.826,5.308a1.54,1.54,0,0,0-.546,2.152c.83,1.354,2.173,3.539,2.851,4.543.622.917,1.245,1.846,1.868,2.774.328.491,1.059,1.627,1.551,2.392a1.069,1.069,0,0,0,1.485.229c1.048-.6,2.6-1.507,3.145-1.878,1.016-.688,6.291-4.281,7.874-5.417.5-.36,2.938-1.977,4.216-2.883a1.528,1.528,0,0,1,2.217.153c1.627,2.228,5.952,10.223,6.608,11.446s-.055,1.736-1.081,2.414c-.666.426-3.8,1.791-21.363,12.505s-20.314,13.029-21.2,13.477c-.513.262-1.453.841-2.2,1.321a1.268,1.268,0,0,1-1.682-.076c-.382-.5-.83-1.125-1.07-1.5-1.147-1.747-4.412-7.012-5.646-9-.295-.47.044-1.114.852-1.671,2.359-1.616,6.826-4.423,8.573-5.592,1.409-.95,5.636-3.659,6.378-4.085a14.631,14.631,0,0,0,1.332-.95,1.291,1.291,0,0,0,.022-1.682c-1.136-1.813-3.222-4.871-3.451-5.133-.284-.339-1.737-2.545-2.49-3.724-.284-.437-.906-.4-1.627.12-2.84,2.086-10.081,7.394-11.216,8.148-1.081.721-2.971,2.119-4.238,3.08a1.621,1.621,0,0,1-2.3-.186c-1.1-1.354-2.829-3.506-3.419-4.478-1.168-1.922-2.479-3.342-3.681-5.417a11.7,11.7,0,0,0-.7-.994c-.273-.371-.011-1.027.655-1.507,1.223-.874,3.036-2.2,3.571-2.61,1.125-.863,15.061-11.358,21.035-15.716C283.21,30.849,293.542,22.7,297.146,19.851ZM248.763-22.8c6.968.24,12.068,3.877,19.462,9.72s12.177,10.561,11.6,17.9c-.295,3.648-4.489,8.715-7,11.446-1.092,1.19-2.294,1.584-3.08.95-1.114-.917-2.938-2.4-5.188-4.238l-4.631-3.768c-.513-.415-.349-1.038.1-1.769,1.18-1.911,2.709-5.81-1.616-9.065-6.018-4.5-8.344-3.025-16.262,7.175-7.8,10.037-7.929,12.09-4.795,15.181,3.178,3.145,6.608,4.849,11.118.131a1.837,1.837,0,0,1,2.283.087c.972.83,2.425,2.075,4.161,3.56,2.1,1.8,3.975,3.4,5.024,4.3.59.492.426,1.464-.415,2.5-2.676,3.244-8.868,9.13-13.98,9.13-5.909,0-12.56-5.384-17.518-9.644S217.517,21.162,218,16.2,224.19,2.126,229.629-5.082,241.8-23.027,248.763-22.8ZM202.74-19.27c7.667-16.721,10.889-22.793,11.817-24.814.328-.71.448-1.147,1.737-.6,1.048.437,3.211,1.365,6.061,2.73a62.867,62.867,0,0,1,6.05,3.32c.655.371.786.863.415,1.66-1.343,2.883-2.916,6.487-11.293,24.857-6.859,15.017-11.26,22.946-11.981,24.5-.492,1.049-1.223,1.332-2.1.939-1.4-.644-3.735-1.715-6.553-3-2.49-1.136-4.052-1.857-4.958-2.272-.754-.349-.906-.819-.459-1.78C192.627,3.753,195.281-3,202.74-19.27Zm-62.569,8.126c.579-4.128,1.169-8.257,1.736-12.374l2.162-15.235q1.032-7.257,2.042-14.515c.382-2.665.546-5.362.961-8.027.1-.666.262-1.791.393-2.643.1-.688,1.038-1.07,2.086-.917a178.722,178.722,0,0,1,18.84,3.113c2.392.491,11.992,2.414,17.562,4.915A14.413,14.413,0,0,1,192.3-50.2c1.726,3.582,1.212,7.47-.022,13.925-1.343,6.979-2.982,13.062-6.553,15.945a10.413,10.413,0,0,1-3.954,1.955c-1.256.306-2,1.038-1.922,1.507.229,1.4.688,4.15,1.376,8.333.7,4.238,1.54,9.338,1.911,11.555.12.721-.229,1.038-.983.841-1.453-.371-4.117-1.136-7.383-1.966C171.526,1.077,169.233.586,168.075.3a1.249,1.249,0,0,1-1-1.1c-.2-1.627-.633-5.352-1.223-10.233-.5-4.259-.765-6.389-.874-7.361a.868.868,0,0,0-.808-.852c-.655-.1-1.726-.273-3.178-.513-1.158-.186-2-.317-2.556-.415-.644-.1-.961.076-1.027.568-.164,1.169-.535,3.812-1.169,8.377-.459,3.309-.765,5.526-.961,6.891-.175,1.311-.633,1.8-1.245,1.682-6.28-1.289-12.036-2.152-13.084-2.348a1.549,1.549,0,0,1-1.409-1.682C139.745-8.173,139.952-9.659,140.171-11.144ZM78.617-62.879c4.216-.961,17.671-3.375,24.661-3.965,6.848-.568,14.569.306,18.676,3.539,5.974,4.718,5.4,11.293,5.734,19.473.393,9.513.765,20.074.481,24.322s-.655,7.285-4.281,10.354c-3.615,3.047-13.412,3.691-19.287,4.3S94.093-3.717,89.822-3.488c-1.474.076-2.534-.4-2.7-1.354-1.2-6.859-6.193-35.539-7.164-41.742-.448-2.807-1.868-11.566-2.392-14.9A1.156,1.156,0,0,1,78.617-62.879Zm-.622,74.07c1.769-.524,3.56-1.038,5.352-1.507s3.626-.819,5.45-1.234,3.637-.841,5.483-1.18,3.7-.633,5.57-.906,3.746-.459,5.625-.666,3.779-.491,5.679-.633,3.823-.262,5.745-.339,3.855.011,5.8.011,3.866.1,5.788.164,3.844.131,5.745.273,3.823.153,5.7.361,3.768.47,5.635.743,3.7.71,5.548,1.049,3.659.743,5.483,1.147,3.648.764,5.45,1.234,3.571,1,5.341,1.529,3.528,1.114,5.275,1.693c1.747.6,3.506,1.125,5.221,1.78s3.44,1.311,5.133,2.01,3.375,1.442,5.035,2.206,3.244,1.693,4.871,2.512,3.244,1.66,4.838,2.545,3.211,1.7,4.773,2.632,3.091,1.933,4.62,2.916,3.036,2,4.522,3.036,2.927,2.13,4.39,3.222c1.453,1.07,2.905,2.162,4.314,3.3s2.785,2.326,4.161,3.506,2.741,2.37,4.074,3.593,2.741,2.381,4.03,3.659,2.534,2.588,3.79,3.9,2.534,2.6,3.735,3.954,2.283,2.84,3.44,4.227,2.425,2.719,3.539,4.161,2.075,2.993,3.145,4.467,2.206,2.905,3.222,4.423,1.977,3.058,2.938,4.609,1.8,3.189,2.709,4.773,1.8,3.189,2.665,4.816c.808,1.518,1.66,3,2.435,4.543.044.109.055.306-.12.306-.83,0-3.506-.011-6.171-.022-2.479,0-4.926-.011-5.919-.022a.914.914,0,0,1-.655-.339c-.71-1.332-1.42-2.654-2.173-3.964-.819-1.409-1.737-2.774-2.6-4.161s-1.824-2.709-2.73-4.063-1.835-2.7-2.785-4.019-1.933-2.621-2.927-3.921c-.994-1.278-1.9-2.632-2.938-3.9-1.037-1.245-2.239-2.359-3.309-3.582s-2.086-2.49-3.189-3.681-2.326-2.261-3.484-3.407-2.315-2.261-3.506-3.364-2.261-2.337-3.495-3.4-2.49-2.075-3.757-3.1-2.5-2.064-3.79-3.047-2.632-1.9-3.954-2.84-2.7-1.813-4.063-2.709-2.632-1.9-4.03-2.763c-1.376-.852-2.84-1.573-4.248-2.381s-2.861-1.562-4.3-2.326-2.872-1.562-4.336-2.272-2.971-1.365-4.478-2.02c-1.5-.677-3-1.3-4.522-1.922s-3.036-1.256-4.587-1.824-3.091-1.147-4.664-1.66-3.189-.841-4.784-1.3-3.178-.95-4.795-1.354-3.222-.874-4.849-1.223-3.287-.644-4.947-.939-3.32-.5-4.991-.743-3.353-.535-5.035-.71-3.4-.328-5.1-.448-3.418-.218-5.144-.273-3.451.055-5.188.055-3.462-.12-5.188-.055-3.429.328-5.133.448-3.407.186-5.089.371-3.386.284-5.068.524-3.3.655-4.958.961c-1.649.284-3.287.633-4.926.994s-3.287.568-4.9.972-3.189.961-4.784,1.42-3.178.906-4.751,1.409-3.135,1.027-4.685,1.584-3.036,1.256-4.565,1.868-3.091,1.092-4.587,1.758-2.927,1.463-4.4,2.184-2.905,1.5-4.347,2.25-2.872,1.54-4.292,2.337-2.905,1.474-4.292,2.326-2.719,1.791-4.074,2.7-2.621,1.911-3.943,2.861-2.654,1.868-3.943,2.85-2.577,1.977-3.823,3c-1.267,1.016-2.567,1.988-3.79,3.058S24.7,54.32,23.507,55.434c-1.18,1.092-2.25,2.337-3.4,3.473s-2.326,2.272-3.44,3.451-2.25,2.348-3.32,3.56S11.3,68.441,10.259,69.7s-2.021,2.545-3.014,3.833-1.988,2.588-2.938,3.9c-.95,1.332-2,2.588-2.916,3.943S-.39,84.1-1.263,85.49s-1.584,2.861-2.4,4.281c-.764,1.311-1.627,2.556-2.37,3.877a.739.739,0,0,1-.535.328c-.841.011-3.069.022-6.05.033-2.73.022-4.795.033-5.756.033a.346.346,0,0,1-.339-.513c.721-1.485,1.42-2.971,2.2-4.423.863-1.616,1.769-3.211,2.676-4.795s1.922-3.113,2.883-4.664,1.824-3.167,2.84-4.685,2.151-2.949,3.222-4.423,2.152-2.927,3.266-4.369,2.184-2.905,3.342-4.3S4.088,59.114,5.29,57.76s2.424-2.7,3.68-4.019,2.6-2.534,3.888-3.79c1.3-1.278,2.523-2.621,3.855-3.844s2.665-2.457,4.052-3.637S23.539,40.133,24.959,39s2.949-2.1,4.412-3.178,2.8-2.326,4.292-3.353,3.047-1.977,4.576-2.96,3.08-1.922,4.642-2.85,3.113-1.889,4.707-2.774,3.244-1.66,4.871-2.468c1.627-.83,3.233-1.726,4.893-2.49s3.4-1.354,5.089-2.053,3.353-1.485,5.079-2.13,3.495-1.136,5.242-1.726S76.225,11.726,77.994,11.191ZM16.43-34.014c1.223-7.678,7.667-11.063,18.348-15.345,6.378-2.545,13.772-5.373,18.7-3.648,7.175,2.512,8.977,8.836,11.752,16.546,3.506,9.731,6.629,19.44,7.732,23.558s1.529,8.169-.765,11.424c-3.277,4.653-8.978,6.127-14.045,8.5s-12.265,5-17.3,3.746c-5.177-1.3-12.571-15.716-17.835-25.6S15.709-29.514,16.43-34.014ZM-24.526-13.219c5.286-4.39,11.511-9.327,16.732-9.021C-.2-21.8,2.963-16.048,7.933-9.528,13.7-1.959,21.77,10.328,21.77,10.328s4.1,5.657,2.457,11.1-6.815,9.513-11.042,13.182S2.9,43.092-2.956,43.092c-5.526,0-13.848-9.971-19.823-16.655S-37.7,11.354-37.7,5.075C-37.7-.233-33.722-5.552-24.526-13.219Zm-48.317,55.11c3.451-6.236,8.333-12.44,13.991-13.925a10.535,10.535,0,0,1,8.541,1.147c2.064,1.169,4.795,3.014,6.225,4a1.105,1.105,0,0,1,.371,1.627c-.644,1.027-1.78,2.818-3.211,5.089-1.365,2.162-2.49,3.943-3.167,5.035a1.292,1.292,0,0,1-1.66.666,6.278,6.278,0,0,0-8.322,2.632c-3.189,5.024-3.266,7.689.874,10.343,6.717,4.292,14.231,9.567,16.623,10.7,2.84,1.343,5.144,2.01,7.678-1.551,3.7-5.177,2.3-8.3,1.19-9.676-.448-.557-1-.612-1.431,0-.262.382-.622.906-1.114,1.627-.459.666-.852,1.245-1.169,1.7-.568.83-1.114,1.147-1.824.71-.765-.48-2.119-1.321-4.4-2.752-2.676-1.671-4.27-2.665-5.1-3.178-.524-.328-.557-.764-.066-1.507.95-1.42,2.752-4.543,6.717-10.5,3.691-5.548,5.756-8.257,6.629-9.556.557-.83,1.07-.819,1.758-.349l4.795,3.32c1.868,1.289,3.2,2.206,4.074,2.818a1.589,1.589,0,0,1,.317,2.425L-25.8,44.654a.6.6,0,0,0,.033.841c1.453,1.125,6.444,4.991,6.444,5.057a10.735,10.735,0,0,1,3.888,8.366c-.229,5.286-2.719,9.032-6.684,15.345a56.883,56.883,0,0,1-7.35,9.611s-2.152,2.25-7.044,2.741a23.506,23.506,0,0,1-13.5-3.408c-4.7-2.709-19.451-10.79-23.2-13.5s-6.378-6.313-6.094-10.124S-76.294,48.127-72.843,41.891Zm48.1,256.416a14.762,14.762,0,0,1-9.382,3.713,11.566,11.566,0,0,1-9.382-3.877,12.052,12.052,0,0,1-3.888-9.392,13.226,13.226,0,0,1,3.888-9.371,13.233,13.233,0,0,1,9.382-3.888,13.071,13.071,0,0,1,9.382,4.281,13.608,13.608,0,0,1,3.888,8.978A13.155,13.155,0,0,1-24.745,298.307Zm48.131,12.472c-1.7,3.244-4.718,7.787-13.368,21.144C1.15,345.6-4.409,353.657-6.145,356.344c-.492.754-1.027.9-1.9.317-1.059-.71-2.7-1.747-5.483-3.67-2.927-2.021-4.314-3-5.046-3.615-.513-.437-.36-.885.295-1.889,1.8-2.752,6.291-9.982,15.312-23.809C6.218,309.6,9.888,304.336,11.111,302.457c.415-.623.786-.677,1.584-.164.95.612,2.49,1.551,5.133,3.3s4.183,2.883,5.1,3.495C23.736,309.622,23.758,310.058,23.387,310.779Zm51.047,23.864c-.437,1.147-1.048,2.73-1.835,4.773-.765,2-1.3,3.375-1.649,4.292-.491,1.278-1.048,1.529-2.4,1-1.027-.393-2.6-.994-4.947-1.889-2.872-1.081-4.784-1.813-5.952-2.261-1.059-.4-1.747,0-2.25,1.212-1,2.381-3.058,7.252-6.389,15.126-3.746,8.879-7.241,17.158-8.748,20.762-.513,1.2-1.136,1.605-2.086,1.311a43.938,43.938,0,0,1-5.45-2.217c-2.425-1.092-4.4-2.152-5.417-2.654-1.19-.579-1.234-1.453-.666-2.807,1.507-3.626,4.784-11.489,8.519-20.467,3.309-7.951,5.242-12.614,6.214-14.93.524-1.289.262-2.075-.721-2.512-1.311-.59-3.484-1.551-6.455-2.883-2.763-1.234-4.543-2.042-5.625-2.512-.961-.437-1.081-1.18-.655-2.119.677-1.431,1.747-3.735,2.861-6.105,1.059-2.272,1.737-3.713,2.119-4.533.273-.59,1.016-.557,2.119-.055,3.244,1.485,10.845,4.576,18.949,8.016,8.322,3.539,15.563,6.957,19.244,8.333C74.554,332.022,75.034,333.07,74.434,334.643Zm49.682,54.575c-.131,2.272-.24,4.1-.317,5.319-.066,1.1-.5,1.736-1.267,1.769-3.047.12-10.037-.2-22.891-1.682-10.736-1.234-18.752-2.567-22.455-3.255-1.463-.273-2.206-.906-1.988-2.337.459-3.08,1.878-10.561,5.177-27.26,4.543-23.012,3.451-18.851,4.915-25.786a2.235,2.235,0,0,1,2.457-1.092c3.255.557,9.818,1.638,16.743,2.523,9.141,1.18,12.418,1.616,18.294,2.184.426.033,1.311.426,1.278,1.245-.022.885-.066,2.37-.131,4.751-.077,2.588-.131,4.642-.164,5.941-.033.994-.47,1.485-1.18,1.387-2.632-.339-9.2-1.169-13.27-1.66-4.707-.557-7.6-.9-11.195-1.3-.371-.044-1.158-.055-1.289.764s-.852,5.1-.928,5.657.12,1.092.633,1.158c1.66.229,5.526.754,8.224,1.07,3.189.382,5.7.677,8.453.95a.989.989,0,0,1,.786,1.1l-.306,4.27-.415,6.007c-.055.786-.371,1.245-.907,1.234-1.485-.022-4.871-.12-9.381-.535-2.425-.229-5.177-.535-8.137-.983a.829.829,0,0,0-.841.775c-.109.633-.754,4.565-.972,6.225s.273,2.108,1.343,2.25c4.38.568,15.771,2.152,28.582,2.807.513.022,1.518.535,1.453,1.453C124.367,385.231,124.258,386.892,124.116,389.218Zm77.8-8.1c-1.1.382-2.872.874-5.526,1.813-2.162.765-3.8,1.442-4.926,1.835-2.217.786-2.949.306-3.429-.983-1.016-2.687-2.883-7.645-4.7-12.483-1.682-4.456-3.08-8.191-3.91-10.375-.492-1.322-.852-1.66-.994-.961-.459,2.272-1.529,7.645-2.512,12.516-.732,3.637-1.605,7.984-2.217,11.042-.459,2.315-1.158,3.637-3.451.841-1.878-2.3-4.773-5.461-7.722-8.836-3.3-3.768-5.646-6.455-6.99-7.984-.874-.994-1.2-.983-1.027-.044.437,2.3,1.311,7.088,2.075,12.549.59,4.27,1.18,7.449,1.627,9.851.284,1.54.022,2.534-.764,2.665-1.332.218-3.659.655-6.476,1.016-3.9.491-5.1.623-7.23.808-.8.066-1.147-.59-1.343-1.868-.633-4.292-2.152-14.395-4.117-27.566-1.966-13.15-3.134-20.958-3.56-23.864-.131-.885.218-1.376.972-1.518,1.114-.186,2.982-.524,5.373-.939,2.479-.437,4.893-.852,6.378-1.125a2.333,2.333,0,0,1,2.141.459c.95,1.038,2.883,3.156,5.472,6.007,2.435,2.676,5.483,6.018,7.317,8.049,1,1.092,1.791,1,2.064-.415.371-2.042.994-5.384,1.769-9.556.852-4.587,1.354-7.317,1.616-8.683a1.859,1.859,0,0,1,1.474-1.507c.939-.317,2.479-.83,4.882-1.638,2.905-.972,4.948-1.649,6.105-2.042.754-.251,1.223-.142,1.464.426.808,1.9,3.211,7.58,8.956,21.144,5.559,13.117,10.07,23.787,12.014,28.385C203.406,379.716,203.461,380.568,201.921,381.114Zm54.346-35.353c-.71,6.171-3.528,9.054-15.2,16.6s-17.638,8.628-21.985,7.547c-3.353-.819-7.5-7.394-9.229-10.365-.5-.863-.513-1.605.109-1.977.874-.535,2.4-1.453,4.707-2.829,2.5-1.485,4.369-2.414,5.4-2.905a1.37,1.37,0,0,1,1.474.426,6.206,6.206,0,0,0,3.484,2.61c2.654.491,5.734-1.409,8.639-3.211,4.554-2.84,7.132-4.62,5-8.038-2.414-3.888-8.945,0-15.192,2.829-4.751,2.141-9.447,3.681-13.455,3.56s-6.16-1.136-10.233-7-5.756-10.79-4.948-14.711c1.125-5.428,8.6-10.932,14.853-14.919,4.958-3.156,9.414-6.2,12.986-6.913a7.869,7.869,0,0,1,6.881,1.649c2.446,1.988,5.035,6.116,6.171,8.027.382.633.371,1.19-.24,1.595-.775.513-2.162,1.409-4.478,2.85-2.414,1.485-4.041,2.337-4.991,2.8a1.937,1.937,0,0,1-1.835-.426c-2.315-1.966-5-.415-8.137,1.464-3.517,2.108-6.378,4.762-4.576,7.995s9.207-.491,13.029-2.119c3.844-1.638,13.018-5.756,16.655-5.428s5.8,3.156,8.5,6.64S256.954,339.579,256.266,345.761Zm8.759-109.641c-.732,1.485-1.442,2.971-2.217,4.423-.874,1.616-1.791,3.211-2.709,4.795s-1.933,3.113-2.905,4.664-1.846,3.167-2.872,4.685-2.162,2.938-3.244,4.412-2.173,2.938-3.3,4.379-2.206,2.905-3.375,4.3-2.4,2.752-3.615,4.117-2.446,2.687-3.713,4.008-2.621,2.523-3.932,3.8-2.534,2.61-3.888,3.833-2.7,2.457-4.085,3.637-2.807,2.337-4.227,3.473-2.993,2.1-4.456,3.178-2.829,2.315-4.336,3.353-3.08,1.977-4.62,2.96-3.113,1.922-4.685,2.851-3.145,1.889-4.762,2.763-3.266,1.66-4.915,2.49-3.255,1.715-4.936,2.479-3.429,1.343-5.133,2.053-3.386,1.485-5.133,2.141c-1.726.644-3.528,1.125-5.286,1.715s-3.495,1.289-5.275,1.824c-1.8.524-3.593,1.038-5.406,1.507s-3.67.819-5.5,1.223-3.67.852-5.537,1.19-3.735.633-5.614.906-3.79.459-5.69.666-3.812.491-5.734.633-3.855.262-5.8.339-3.888-.011-5.843-.011-3.91-.087-5.843-.164-3.877-.131-5.8-.262-3.855-.153-5.756-.371-3.8-.47-5.679-.743-3.735-.71-5.6-1.048-3.7-.743-5.537-1.147-3.681-.764-5.494-1.234-3.615-.994-5.406-1.529-3.549-1.1-5.319-1.7-3.539-1.125-5.275-1.769-3.462-1.3-5.166-2.01-3.407-1.442-5.089-2.206-3.266-1.693-4.915-2.512-3.276-1.671-4.882-2.545-3.255-1.7-4.827-2.632-3.113-1.933-4.653-2.916-3.058-2-4.565-3.025-2.96-2.141-4.434-3.222-2.927-2.173-4.358-3.309-2.807-2.315-4.194-3.506-2.774-2.359-4.117-3.593-2.752-2.381-4.063-3.659-2.567-2.588-3.823-3.9-2.567-2.6-3.779-3.965-2.3-2.829-3.473-4.227-2.436-2.708-3.56-4.15-2.1-2.993-3.178-4.467-2.228-2.905-3.255-4.423-2-3.069-2.971-4.609-1.8-3.189-2.73-4.773-1.813-3.189-2.687-4.806c-.775-1.442-2.162-3.975-2.326-4.3-.164-.306-.142-.546.142-.557s3.539,0,6.072.011c2.5.011,4.969.022,5.974.022a.923.923,0,0,1,.666.349c.71,1.332,1.431,2.654,2.2,3.954.83,1.42,1.747,2.785,2.621,4.172s1.835,2.719,2.752,4.063,1.857,2.7,2.818,4.019,1.944,2.621,2.949,3.91,1.922,2.654,2.971,3.91,2.25,2.359,3.331,3.582,2.108,2.5,3.233,3.681,2.337,2.272,3.506,3.408,2.348,2.261,3.539,3.364,2.294,2.337,3.528,3.408,2.523,2.064,3.79,3.091,2.523,2.075,3.833,3.058,2.654,1.889,3.986,2.829,2.73,1.813,4.1,2.709,2.665,1.911,4.063,2.752c1.4.863,2.872,1.584,4.3,2.392s2.883,1.562,4.347,2.326,2.883,1.562,4.369,2.283,3,1.354,4.511,2.02,3.036,1.3,4.576,1.911,3.058,1.256,4.62,1.824,3.124,1.147,4.707,1.66,3.233.841,4.838,1.3,3.2.95,4.838,1.354,3.244.874,4.893,1.223,3.32.644,4.991.939,3.353.5,5.046.754c1.682.229,3.375.524,5.079.71s3.418.317,5.144.437,3.451.218,5.188.273,3.484-.055,5.242-.055,3.495.12,5.231.055,3.462-.328,5.188-.448,3.44-.186,5.144-.371,3.408-.284,5.1-.524,3.342-.655,5.013-.961c1.66-.284,3.32-.633,4.969-.994,1.649-.339,3.32-.557,4.958-.961s3.211-.961,4.816-1.42,3.211-.906,4.795-1.42,3.167-1.016,4.74-1.584c1.551-.568,3.069-1.256,4.6-1.879s3.124-1.081,4.642-1.747,2.96-1.474,4.434-2.184,2.927-1.485,4.39-2.25,2.905-1.54,4.325-2.348,2.938-1.463,4.336-2.315,2.741-1.8,4.107-2.7,2.654-1.922,3.986-2.861,2.676-1.868,3.975-2.85,2.6-1.966,3.877-3,2.588-1.988,3.823-3.058,2.479-2.119,3.67-3.233,2.272-2.337,3.44-3.484,2.337-2.261,3.462-3.44,2.272-2.348,3.364-3.56,2.064-2.523,3.113-3.779,2.042-2.545,3.047-3.833,2-2.578,2.96-3.91c.961-1.311,2.02-2.577,2.938-3.932s1.8-2.73,2.676-4.117,1.594-2.872,2.435-4.292c.765-1.3,1.638-2.545,2.381-3.877a.788.788,0,0,1,.557-.328c.841,0,3.091-.011,6.105-.033,2.752-.011,4.827-.022,5.8-.022A.355.355,0,0,1,265.026,236.12Zm-232.847,14.5V249.2c0,.087.055-.142.153-.153.655-.011,3.32-.044,6.608-.044,3.79,0,6.313.055,6.389.055.131-.011.164.055.164.207v1.354c0,.12-.055.207-.153.207-.885.022-5.188.011-5.3.011-.131,0-.153.109-.153.273-.011.131-.055,8.3-.066,9.633a.164.164,0,0,1-.175.186H38c-.087,0-.142-.066-.142-.186-.011-1.332-.066-9.556-.087-9.731s-.033-.186-.24-.2c-.186,0-4.194.011-5.144.011A.19.19,0,0,1,32.178,250.624Zm18.785-1.212a.32.32,0,0,1,.36-.349c.546,0,2.053-.055,4.4-.055s4.6.055,4.6.055a4.1,4.1,0,0,1,2.927,1,3.555,3.555,0,0,1,1.07,2.73,3.424,3.424,0,0,1-.863,2.435,3.627,3.627,0,0,1-1.977,1.027c-.077.022-.186.12-.077.295a12.8,12.8,0,0,0,1.07,1.551c.841,1.081,1.605,1.966,2.01,2.5.142.208.251.328.164.328H62.7c-.273.011-.349-.1-.481-.273-.262-.371-1.158-1.3-1.78-2.108s-1.343-1.595-1.529-1.846a.863.863,0,0,0-.48-.295H53.093c-.109,0-.164.076-.164.218v4.063a.229.229,0,0,1-.24.24H51.127c-.1,0-.164-.076-.164-.24,0-.6.011-2.261.011-4.9C50.974,252.415,50.963,250.9,50.963,249.411ZM69.344,260.7c.339-.633,1.278-2.337,3.069-5.734,1.835-3.462,2.905-5.3,3.145-5.767.055-.1.175-.142.349-.142h2.01c.131,0,.208.022.317.229.229.426.786,1.638,2.425,4.751,1.944,3.67,3.156,5.81,3.571,6.575.109.218.109.317.022.317h-1.8a.363.363,0,0,1-.328-.24c-.109-.2-.306-.426-.579-.9-.371-.633-.579-1.125-.732-1.343a.632.632,0,0,0-.415-.175H73.079a.3.3,0,0,0-.295.186,10.338,10.338,0,0,0-.688,1.18c-.426.819-.524.9-.633,1.114a.339.339,0,0,1-.328.175H69.388C69.257,260.933,69.257,260.857,69.344,260.7Zm19.222-5.941c0-3.637.131-5.122.131-5.537,0-.12.066-.164.186-.164h7.328a6.994,6.994,0,0,1,4.9,1.649,6.094,6.094,0,0,1,.022,8.781,6.626,6.626,0,0,1-4.5,1.54s-7.23-.066-7.438-.1-.5-.055-.5-.186C88.7,260.224,88.566,258.651,88.566,254.763Zm21.373-.885c.35,0,1.2.011,2.971.011,1.977,0,4.412.022,4.849.022.153,0,.229.055.229.251v1.322c0,.153-.142.2-.382.2-1.234,0-6.269-.022-4.521-.022,1.78,0-1.977-.011-3.091-.011-.186,0-.295.055-.295.175v3.1c0,.153.087.24.262.24.568,0,2.108.076,4.587.076,2.73,0,4.827.011,5.439.011.109,0,.175.055.175.218v1.321c0,.175-.087.219-.24.229-1.726.1-3.855.011-6.291.011s-4.216-.1-5.668-.1a.211.211,0,0,1-.229-.24V249.226q0-.164.2-.164c.59,0,2.556-.076,5.668-.076,3.287,0,5.417.076,5.963.076.087,0,.142.066.142.186v1.311c0,.164-.087.273-.24.273-.7,0-2.84-.033-5.155-.033-2.228,0-3.823.033-4.38.033-.153,0-.229.055-.229.153v2.654A.214.214,0,0,0,109.94,253.878Zm26.135,6.75c0-.623.011-2.01.011-5.231,0-3.134.1-5.21.1-5.941,0-.262.087-.393.35-.393h1.682a.956.956,0,0,1,.6.207c.349.448,1.234,1.573,2.741,3.462,1.322,1.66,2.13,2.272,2.512,2.752.2.251.339.306.59-.011.317-.4.721-.939,2.217-2.676,1.9-2.217,2.752-3.211,3.036-3.571a.451.451,0,0,1,.382-.164h2.01c.131,0,.2.066.2.207,0,.524.109,2.6.142,4.718.044,2.447-.011,5.734-.011,6.706,0,.153-.076.24-.262.24h-1.431c-.186,0-.273-.055-.273-.164,0-.634-.066-2.872-.066-5.079,0-1.878-.065-3.222-.065-3.866,0-.251-.033-.339-.1-.273-.317.393-1.485,1.485-2.8,3.135-1.223,1.54-2.512,3.069-3.047,3.735-.142.175-.284.2-.4.055-.491-.634-1.966-2.152-3.276-3.823-1.125-1.409-1.977-2.5-2.4-3.047-.208-.24-.361-.295-.361-.109,0,.546-.065,2.075-.065,4.434,0,2.49-.033,4.085-.033,4.74,0,.175-.076.262-.208.262h-1.551C136.162,260.933,136.075,260.835,136.075,260.628Zm20.762.076c.328-.633,1.125-2.479,2.894-5.876,1.9-3.648,2.829-5.264,3.069-5.712.055-.109.164-.153.339-.153h2.02c.12,0,.208.033.317.229.218.426.939,1.562,2.577,4.674,1.955,3.681,3.014,5.985,3.429,6.75.109.218.109.317.022.317h-1.8a.363.363,0,0,1-.328-.24c-.109-.2-.2-.426-.47-.9-.371-.633-.579-1.125-.732-1.343a.632.632,0,0,0-.415-.175c-.481,0-1.66-.1-3.833-.1-2.01,0-3.08.1-3.484.1a.3.3,0,0,0-.295.186c-.1.175-.175.284-.6,1.1s-.481.972-.59,1.19a.35.35,0,0,1-.328.175h-1.758C156.749,260.933,156.749,260.857,156.837,260.7Zm30.264-2.676c.808,1.169,1.485,2.326,1.78,2.741.065.109.044.164-.153.164h-1.791a.371.371,0,0,1-.349-.153c-.306-.437-1.07-1.671-1.715-2.567-.579-.83-1-1.431-1.179-1.682a.413.413,0,0,0-.35-.12c-.47,0-1.507-.066-2.785-.066-1.343,0-2.4.066-2.785.066-.109,0-.164.033-.164.142,0,.218-.066.994-.066,2.031,0,1.114.066,1.715.066,2.119q0,.229-.2.229h-1.562c-.142,0-.218-.044-.218-.153,0-.415-.065-1.573-.065-5.122,0-3.67.065-5.777.065-6.389,0-.142.077-.207.218-.207.513,0,1.922-.1,4.434-.1,3.255,0,4.718.1,4.718.1a4.1,4.1,0,0,1,2.927,1,3.171,3.171,0,0,1,1.169,2.73,2.852,2.852,0,0,1-.917,2.5,3.675,3.675,0,0,1-1.966.961c-.1.022-.273.087-.207.186C186.15,256.641,186.456,257.089,187.1,258.028Zm7.4-8.737c0-.153.065-.229.218-.229h1.551c.142,0,.2.066.2.207,0,.317-.011,1.3.022,2.676s-.022,2.3-.022,2.905c0,.229.1.284.295.142.524-.382,2.1-1.387,3.877-2.7,2-1.485,3.408-2.687,3.965-3.1a.864.864,0,0,1,.48-.229h1.038c.481,0,.874-.033,1.147-.033.218,0,.273.055.142.153-.448.317-1.5,1.245-2.752,2.173-1.212.9-2.162,1.671-2.676,2.053a.285.285,0,0,0-.066.459c.382.426,1.125,1.42,2.479,2.894,1.485,1.638,3.047,3.32,3.626,3.954.153.164.131.262-.055.262-.24,0-.612-.022-1.07-.022h-.732c-.284,0-.48,0-.6-.131-.426-.47-1.595-1.747-2.971-3.255-1.289-1.409-2.053-2.119-2.359-2.457-.12-.131-.295-.109-.47.033-.361.262-.983.59-1.518.983-.568.415-1.158.841-1.5,1.092a.426.426,0,0,0-.208.371c0,.229-.076.7-.076,1.463v1.682c0,.208-.077.295-.218.295h-1.562c-.109,0-.186-.12-.186-.339,0-1.048.087-3.888.087-6.52C194.592,251.661,194.505,249.793,194.505,249.291Zm98.348,42.856a14.793,14.793,0,0,1-6,8.115c-4.019,2.5-6.433,2.2-9.742,1.431s-6.214-1.944-8.541-5.668a13.291,13.291,0,0,1,4.238-18.283,12.857,12.857,0,0,1,18.283,4.237C293.148,285.288,293.76,289.439,292.853,292.147Zm52.959-129.377c-.284,1.136-.906,3.189-.906,3.189l-1.223,4.292-1.1,4.336-5,17.169-1.223,4.292-1.267,4.281-2.348,8.628-1.19,4.314-3.713,12.876-.448,1.66c-.208.808-.819,2.709-2.643,2.7s-4.511-.1-4.511-.1l-6.367-.033-6.378.066-6.367.044-12.756-.065L282,230.55l-19.124-.12-12.734.12-6.378-.131-6.378-.011-6.367-.022-6.378.011-12.745-.044-6.367.2-19.124-.087-6.367-.011-12.756.087-6.367-.131-6.367-.033-25.5-.011-6.367.142-6.378-.087-6.367.065-6.378-.109H97.183l-6.378.033-6.378.087-6.367-.055-6.367.022-6.378-.033-12.745-.066-6.367.066-6.378.066-6.378-.044L1.587,230.5l-6.378.033h-6.367L-23.9,230.4l-25.491-.022-6.378.066-19.113-.076s-2.152.033-3.965.044a2.927,2.927,0,0,1-3.1-2.25c-.437-1.343-.6-1.977-.6-1.977l-1.256-4.281-2.435-8.6-1.223-4.292-1.059-4.347-1.311-4.259-8.672-30.034-1.016-4s-.579-3.528-.677-3.855a2.72,2.72,0,0,1,.109-1.573c.24-.743.721-3.833.721-3.833l2.283-7.055,1.2-3.91,1.256-3.91,1.07-3.954,6.127-19.56,2.446-7.82,2.414-7.831s.164-.47.47-1.289a5.351,5.351,0,0,1,4.467-2.545c2.283-.022,2.774-.044,2.774-.044l25.491-.066,12.745.142,6.367-.055,6.378.076,25.491-.033H14.354l6.378-.131,12.745.033,6.367-.033,6.378.12,12.745-.066,6.367-.076,12.745.142,6.378-.164,6.378.044,6.367.044,6.367.055,19.124.011,6.378-.131,12.735.066,12.756.076,6.378-.022,6.367-.087,12.745.044L192.8,99.1l6.367.2,6.378-.142,6.378.142,12.745-.2,6.367-.011,6.378.055,6.378.109,6.367-.066,6.367.055,6.378-.142,19.124.044,6.378.011,6.367.022,6.367-.066,3.9.076,6.378.033,6.367-.2h3.56a3.1,3.1,0,0,1,2.927,2.02c.524,1.431,2.392,5.887,2.392,5.887l3.244,7.143s2.053,5.21,4.98,12.44a33.041,33.041,0,0,1,1.453,3.965l2.49,7.8,1.311,3.877,1.136,3.932,2.435,7.809,1.3,3.888s.24.852.557,1.944A5.384,5.384,0,0,1,345.812,162.771Z" transform="translate(121.2 79.176)"/>
  <path id="パス_11" data-name="パス 11" class="cls-1" d="M-56.18,17.539c-2.021.022-8.06.066-17.016.066-8.737,0-13.237.1-14.733-.022-.415-.033-.6-.24-.6-.7,0-1.234-.2-4.827-.2-11.784,0-7.7.306-10.277.306-11.642,0-.339.066-.524.666-.513s8.508-.153,8.508-.153l9.666.164s.546-.066.524-.775-.011-8.246-.011-8.246-.011-6.8-.011-7.186-.2-.579-.535-.579c-1.573,0-6.28.011-9.633.022-4.1,0-8.115.011-8.65.011-.557,0-.743-.218-.765-.677-.055-1.332-.186-5.843-.186-11.216,0-5.21.022-7.623.077-8.562.022-.371.2-.513.492-.513,1.584-.033,7.2-.109,13.073-.109,5.9,0,13.706.022,15.956.087.4.022.622-.153.612-.491-.044-1.081-.12-3.8-.12-7.667,0-5.079.142-7.186.142-7.186a.561.561,0,0,0-.524-.633c-2.272-.142-11.839-.317-23.11-.317-12.942-.011-22.345.317-22.924.328-.492,0-.754.251-.764.557,0,.142.535,9.261.535,47.268s-.6,41.906-.546,46.187c.011.568.273.874.775.874,2.632.033,12.014.1,26.616.1,14.132,0,19.8,0,22.28-.076.568-.011.841-.284.841-.754V18.282C-55.438,17.758-55.689,17.528-56.18,17.539Z" transform="translate(272.466 258.668)"/>
  <path id="パス_12" data-name="パス 12" class="cls-1" d="M-40.311-59.506c-.284-.917-.83-1.431-1.474-1.431-2.326-.022-7.984-.076-11.468-.131-3.517.055-9.152.109-11.839.131-.928,0-1.595.284-1.78.961-.819,3.047-3.735,14.187-10.79,45.182-7.612,33.4-9.993,45.783-10.463,48.262-.055.339.055.5.415.513.917.033,3.276.109,8.268.109,5.253,0,7.853-.076,8.8-.109a.539.539,0,0,0,.513-.491c.284-1.431,1.343-5.8,2.512-10.714.95-4.074,1.463-6.586,1.791-7.7.153-.513.459-.754.885-.732,1.529.055,5.854.011,12.964.011,7.372,0,12.145.033,13.707-.011a.7.7,0,0,1,.754.524c.4,1.114,1.278,4.248,2.567,8.923,1.736,6.247,2.414,9.152,2.5,9.556s.142.622.623.633c1.07,0,4.019.087,8.694.033,4.762-.055,8.584-.055,9.96-.055.35,0,.492-.175.393-.513C-14.066,29-23.284-2.889-28.515-20.516-33.277-36.593-38.749-54.428-40.311-59.506Zm-2.5,58.343c-1.824.033-6.52.076-8.967.12,1.66.022,2.206.044-.022.044-2.294,0-1.682-.022.022-.044-2.643-.044-8.126-.1-9.939-.12-.349,0-.535-.164-.47-.5.273-1.595,1.311-7.252,4.1-19.975,3.375-15.432,4.183-17.682,4.281-18.053s.688-.513.906.251,1.66,4.991,5.231,17.54c2.927,10.244,4.849,17.573,5.461,19.921C-42.08-1.447-42.309-1.163-42.812-1.163Z" transform="translate(449.22 258.837)"/>
  <path id="パス_13" data-name="パス 13" class="cls-1" d="M-34.222-60.18c-.033-.393-.317-.579-.841-.59-2.676-.076-12.352-.317-29.859-.317-18.239,0-26.518.262-28.341.328-.262,0-.393.109-.4.35-.044.754-.12,2.818-.12,7.208,0,4.849.1,8.06.131,8.977,0,.186.175.284.524.284,1.19,0,4.565-.131,10.55-.131,5.242,0,7.82.055,9.054.1.579.011.677.076.7.8s.131,4.915.131,29.062c0,22.335.208,44.505.208,47.836,0,.273.1.415.306.4.83-.033,3.331-.109,8.2-.109,4.434,0,6.935.065,7.973.1.382.011.568-.153.568-.5,0-3.408.109-15.661.109-40.191,0-27.042-.087-36.3-.109-36.762s.273-.633.9-.677c1.354-.1,4.358-.142,9.775-.186,4.958-.033,7.863.131,9.251.131.9.022,1.267-.131,1.3-.622.1-1.278.044-3.986.044-8.137C-34.178-56.925-34.124-59.229-34.222-60.18Z" transform="translate(393.165 258.659)"/>
  <path id="パス_14" data-name="パス 14" class="cls-1" d="M-91.314-60.2c-.022-.415-.24-.83-.644-.83-1.431.011-6.258-.033-8.486-.033s-7.263,0-7.656.033c-.764.044-1.092.218-1.092,1.1,0,.371-.142,18-.142,37.111,0,24.2.142,51.43.142,56.027,0,.426.077.644.677.644.295,0,3.844.1,8.191.1,3.648,0,7.5-.065,8.661-.1.218,0,.349-.186.349-.535,0-2.141.284-20.489.208-46.875S-91.314-60.108-91.314-60.2Z" transform="translate(238.915 258.936)"/>
  <path id="パス_15" data-name="パス 15" class="cls-1" d="M-82.417-20.585c-16.011-5.8-16.142-13.532-15.858-15.825.754-6.072,5.22-9.589,11.7-9.545,6.695.033,13.171,5.188,15.476,7.885.415.47.4.732.8.732a2.188,2.188,0,0,0,1.158-.612c.2-.142,4.281-3.6,5.624-4.795s4.5-4.238,5.133-4.805c.12-.109.011-.317-.077-.4-6.138-7.274-15.509-13.281-27.7-13.357-13.794-.076-26.113,6.629-28.593,22-3.1,19.189,17.191,29.15,25.6,32.579C-76.213-1.45-70.108,3.912-72.085,13.5c-1.234,6.04-7.241,8.868-14.864,8.814-5.439-.033-11.915-4.281-14.045-9.884-.076-.218-.164-.655-.5-.59s-3.517,1.256-7.481,2.872a62.915,62.915,0,0,0-7,3.244c-.371.251-.317.4-.295.47,4.041,12.363,16.033,19.528,29.062,19.6,16.994.1,29.029-7.536,31.115-20.456C-53.475,1.291-57.155-11.444-82.417-20.585Z" transform="translate(169.916 256.416)"/>
  <path id="パス_16" data-name="パス 16" class="cls-1" d="M-65.981-20.715c-15.541-7.241-15.705-11.227-15.6-15.05A10.093,10.093,0,0,1-77.1-43.9a11.116,11.116,0,0,1,7.132-2.261c5.6,0,12.167,3.724,16.208,7.394a.911.911,0,0,0,1.212-.295c.939-1.245,2.632-3.331,4.587-5.559,2.2-2.5,4.128-4.751,4.128-4.751s.557-.819-.087-1.332a40.919,40.919,0,0,0-12.56-7.776A35.857,35.857,0,0,0-69.968-61.3c-15.891,0-25.447,8.661-27.839,22.64-3.276,19.1,16.787,28.429,25.2,31.793C-59.68-1.678-52.886,5.672-55.082,13.044c-1.758,5.9-7.514,9.949-15.115,9.949-5.45,0-12.035-5.177-14.143-10.79a.686.686,0,0,0-.775-.393c-.907.251-3.921.9-7.667,1.911-4.238,1.147-6.105,1.824-7.154,2.108a.465.465,0,0,0-.317.557C-96.081,28.6-83.925,38.36-71.005,38.36s16.251-2.414,21.81-6.553a28.035,28.035,0,0,0,9.687-14.624A26.115,26.115,0,0,0-44.52-6.538C-48.845-11.977-55.988-16.062-65.981-20.715Z" transform="translate(328.891 256.545)"/>
</svg>
